# xmcd
#
# Track frame offsets:
#	300
#	15078
#	34464
#	54874
#	75054
#	91744
#	107581
#	119767
#	140933
#	160556
#
# Disc length: 2407 seconds
#
# Revision: 0
# Processed by: cddbd v1.5.2PL0 Copyright (c) Steve Scherf et al.
# Submitted via: audiograbber 1.83.01
#
DISCID=6e09630a
DTITLE=Easy Karaoke - Country Karaoke
DYEAR=1900
DGENRE=
TTITLE0=Craig Morgan - That's What I Love About Sunday
TTITLE1=Shania Twain - Man I Feel Like A Woman
TTITLE2=Kenny Rogers - Coward Of The County
TTITLE3=Josh Groban - You Raise Me Up
TTITLE4=Billy Ray Cyrus - Achy Breaky Heart
TTITLE5=John Denver - Take Me Home Country Roads
TTITLE6=Johnny Cash - Walk The Line
TTITLE7=LeAnn Rimes - How Do I Live
TTITLE8=Faith Hill - Breathe
TTITLE9=Dolly Parton and Kenny Rogers - Islands In The Stream
EXTD=
EXTT0=
EXTT1=
EXTT2=
EXTT3=
EXTT4=
EXTT5=
EXTT6=
EXTT7=
EXTT8=
EXTT9=
PLAYORDER=
